<svg width="15" height="9" viewBox="0 0 15 9" fill="none" xmlns="http://www.w3.org/2000/svg">
<path d="M0.88998 0.423183C1.08659 0.226629 1.35322 0.116211 1.63123 0.116211C1.90924 0.116211 2.17587 0.226629 2.37249 0.423183L7.56231 5.61301L12.7521 0.423183C12.9499 0.232199 13.2147 0.126521 13.4896 0.12891C13.7645 0.131299 14.0275 0.241563 14.2219 0.435954C14.4163 0.630345 14.5265 0.893309 14.5289 1.16821C14.5313 1.44311 14.4256 1.70795 14.2346 1.90569L8.30357 7.83677C8.10695 8.03332 7.84032 8.14374 7.56231 8.14374C7.2843 8.14374 7.01767 8.03332 6.82106 7.83677L0.88998 1.90569C0.693426 1.70908 0.583008 1.44245 0.583008 1.16444C0.583008 0.886425 0.693426 0.619796 0.88998 0.423183Z" fill="#661ACF"/>
</svg>
