<svg width="25" height="24" viewBox="0 0 25 24" fill="none" xmlns="http://www.w3.org/2000/svg">
<path d="M12.4402 2.20983L10.0302 7.81983H7.6202C7.2202 7.81983 6.8302 7.84983 6.4502 7.92983L7.4502 5.52983L7.4902 5.43983L7.5502 5.27983C7.5802 5.20983 7.6002 5.14983 7.6302 5.09983C8.7902 2.40983 10.0902 1.56983 12.4402 2.20983Z" fill="#6717CE"/>
<path d="M19.2301 8.08953L19.2101 8.07953C18.6101 7.90953 18.0001 7.81953 17.3801 7.81953H11.1201L13.3701 2.58953L13.4001 2.51953C13.5401 2.56953 13.6901 2.63953 13.8401 2.68953L16.0501 3.61953C17.2801 4.12953 18.1401 4.65953 18.6701 5.29953C18.7601 5.41953 18.8401 5.52953 18.9201 5.65953C19.0101 5.79953 19.0801 5.93953 19.1201 6.08953C19.1601 6.17953 19.1901 6.25953 19.2101 6.34953C19.3601 6.85953 19.3701 7.43953 19.2301 8.08953Z" fill="#6717CE"/>
<path d="M18.7902 9.52031C18.3402 9.39031 17.8702 9.32031 17.3802 9.32031H7.62023C6.94023 9.32031 6.30023 9.45031 5.70023 9.71031C3.96023 10.4603 2.74023 12.1903 2.74023 14.2003V16.1503C2.74023 16.3903 2.76023 16.6203 2.79023 16.8603C3.01023 20.0403 4.71023 21.7403 7.89023 21.9503C8.12023 21.9803 8.35023 22.0003 8.60023 22.0003H16.4002C20.1002 22.0003 22.0502 20.2403 22.2402 16.7403C22.2502 16.5503 22.2602 16.3503 22.2602 16.1503V14.2003C22.2602 11.9903 20.7902 10.1303 18.7902 9.52031ZM15.0002 16.7503H10.0002C9.59023 16.7503 9.25023 16.4103 9.25023 16.0003C9.25023 15.5903 9.59023 15.2503 10.0002 15.2503H15.0002C15.4102 15.2503 15.7502 15.5903 15.7502 16.0003C15.7502 16.4103 15.4102 16.7503 15.0002 16.7503Z" fill="#6717CE"/>
</svg>
