<svg width="12" height="12" viewBox="0 0 12 12" fill="none" xmlns="http://www.w3.org/2000/svg">
<path d="M6.96238 5.03779L4.53779 7.46238C4.22633 7.15092 4.03467 6.72446 4.03467 6.25008C4.03467 5.30133 4.80133 4.53467 5.75008 4.53467C6.22446 4.53467 6.65092 4.72633 6.96238 5.03779Z" stroke="white" stroke-width="1.07812" stroke-linecap="round" stroke-linejoin="round"/>
<path d="M8.53892 3.26461C7.70038 2.63211 6.74204 2.28711 5.75017 2.28711C4.05871 2.28711 2.48225 3.28378 1.38496 5.00878C0.953711 5.6844 0.953711 6.82003 1.38496 7.49565C1.7635 8.08982 2.20434 8.60253 2.6835 9.01461" stroke="white" stroke-width="1.07812" stroke-linecap="round" stroke-linejoin="round"/>
<path d="M4.03467 9.85863C4.58092 10.0886 5.16071 10.2132 5.75008 10.2132C7.44154 10.2132 9.018 9.21654 10.1153 7.49154C10.5465 6.81592 10.5465 5.68029 10.1153 5.00467C9.95717 4.7555 9.78467 4.52071 9.60738 4.30029" stroke="white" stroke-width="1.07812" stroke-linecap="round" stroke-linejoin="round"/>
<path d="M7.43182 6.58545C7.30723 7.26107 6.75619 7.81212 6.08057 7.9367" stroke="white" stroke-width="1.07812" stroke-linecap="round" stroke-linejoin="round"/>
<path d="M4.53787 7.4624L0.958496 11.0418" stroke="white" stroke-width="1.07812" stroke-linecap="round" stroke-linejoin="round"/>
<path d="M10.5418 1.45801L6.9624 5.03738" stroke="white" stroke-width="1.07812" stroke-linecap="round" stroke-linejoin="round"/>
</svg>
