<svg width="25" height="24" viewBox="0 0 25 24" fill="none" xmlns="http://www.w3.org/2000/svg">
<path d="M12.6499 16.5V18.6V16.5Z" fill="#657795"/>
<path d="M12.6499 16.5V18.6" stroke="#661ACF" stroke-width="1.5" stroke-linecap="round" stroke-linejoin="round"/>
<path d="M7.6499 22H17.6499V21C17.6499 19.9 16.7499 19 15.6499 19H9.6499C8.5499 19 7.6499 19.9 7.6499 21V22Z" fill="#661ACF"/>
<path d="M12.5 16C8.63 16 5.5 12.87 5.5 9V6C5.5 3.79 7.29 2 9.5 2H15.5C17.71 2 19.5 3.79 19.5 6V9C19.5 12.87 16.37 16 12.5 16Z" fill="#661ACF"/>
<path d="M5.97004 11.6496C5.22004 11.4096 4.56004 10.9696 4.04004 10.4496C3.14004 9.44961 2.54004 8.24961 2.54004 6.84961C2.54004 5.44961 3.64004 4.34961 5.04004 4.34961H5.69004C5.49004 4.80961 5.39004 5.31961 5.39004 5.84961V8.84961C5.39004 9.84961 5.60004 10.7896 5.97004 11.6496Z" stroke="#661ACF" stroke-width="1.5" stroke-linecap="round" stroke-linejoin="round"/>
<path d="M19.0298 11.6496C19.7798 11.4096 20.4398 10.9696 20.9598 10.4496C21.8598 9.44961 22.4598 8.24961 22.4598 6.84961C22.4598 5.44961 21.3598 4.34961 19.9598 4.34961H19.3098C19.5098 4.80961 19.6098 5.31961 19.6098 5.84961V8.84961C19.6098 9.84961 19.3998 10.7896 19.0298 11.6496Z" stroke="#661ACF" stroke-width="1.5" stroke-linecap="round" stroke-linejoin="round"/>
</svg>
