<svg width="23" height="23" viewBox="0 0 23 23" fill="none" xmlns="http://www.w3.org/2000/svg">
<path d="M6.81372 5.7114L15.4579 2.82682C19.3391 1.53307 21.4475 3.65099 20.1633 7.53224L17.2787 16.1764C15.3429 21.9935 12.1612 21.9935 10.2254 16.1764L9.37247 13.6081L6.80414 12.7552C0.996635 10.8289 0.996635 7.65682 6.81372 5.7114Z" fill="#661ACF"/>
<path d="M11.6152 11.1457L15.2665 7.48486Z" fill="#661ACF"/>
<path d="M11.6153 11.864C11.4332 11.864 11.2511 11.7969 11.1074 11.6532C10.8294 11.3753 10.8294 10.9153 11.1074 10.6373L14.749 6.9765C15.0269 6.69859 15.4869 6.69859 15.7649 6.9765C16.0428 7.25442 16.0428 7.71442 15.7649 7.99234L12.1232 11.6532C11.9794 11.7873 11.7974 11.864 11.6153 11.864Z" fill="white"/>
</svg>
