<svg width="23" height="23" viewBox="0 0 23 23" fill="none" xmlns="http://www.w3.org/2000/svg">
<path d="M15.6157 3.30176C17.4793 2.68055 18.7386 2.93645 19.394 3.59277C20.0498 4.24955 20.305 5.51102 19.689 7.37402L16.8042 16.0186C16.3309 17.4407 15.7935 18.4689 15.2466 19.1309C14.6986 19.7941 14.187 20.0399 13.7524 20.04C13.3178 20.04 12.8055 19.7943 12.2573 19.1309C11.7104 18.4689 11.173 17.4407 10.6997 16.0186L9.84717 13.4512L9.76807 13.2129L9.52979 13.1338L6.96143 12.2812C5.54186 11.8104 4.51649 11.2752 3.85596 10.7305C3.19387 10.1844 2.9493 9.67427 2.94971 9.24121C2.95019 8.80784 3.19599 8.29677 3.85986 7.74805C4.43948 7.26903 5.29888 6.79642 6.45752 6.36719L6.97217 6.18652L15.6157 3.30176Z" stroke="#657795"/>
<mask id="path-2-inside-1_2601_616" fill="white">
<path d="M11.6152 11.1452L15.2665 7.48438Z"/>
</mask>
<path d="M11.6152 11.1452L12.3233 11.8514L15.9745 8.19055L15.2665 7.48438L14.5585 6.7782L10.9072 10.439L11.6152 11.1452Z" fill="#657795" mask="url(#path-2-inside-1_2601_616)"/>
<path d="M11.6153 11.8645C11.4332 11.8645 11.2511 11.7974 11.1074 11.6537C10.8294 11.3757 10.8294 10.9157 11.1074 10.6378L14.749 6.97699C15.0269 6.69908 15.4869 6.69908 15.7649 6.97699C16.0428 7.25491 16.0428 7.71491 15.7649 7.99283L12.1232 11.6537C11.9794 11.7878 11.7974 11.8645 11.6153 11.8645Z" fill="white"/>
</svg>
