<svg width="24" height="25" viewBox="0 0 24 25" fill="none" xmlns="http://www.w3.org/2000/svg">
<path d="M12 2.42383C6.49 2.42383 2 6.91383 2 12.4238C2 17.9338 6.49 22.4238 12 22.4238C17.51 22.4238 22 17.9338 22 12.4238C22 6.91383 17.51 2.42383 12 2.42383ZM16.78 10.1238L11.11 15.7938C10.97 15.9338 10.78 16.0138 10.58 16.0138C10.38 16.0138 10.19 15.9338 10.05 15.7938L7.22 12.9638C6.93 12.6738 6.93 12.1938 7.22 11.9038C7.51 11.6138 7.99 11.6138 8.28 11.9038L10.58 14.2038L15.72 9.06383C16.01 8.77383 16.49 8.77383 16.78 9.06383C17.07 9.35383 17.07 9.82383 16.78 10.1238Z" fill="#296EFA"/>
</svg>
