<svg width="33" height="33" viewBox="0 0 33 33" fill="none" xmlns="http://www.w3.org/2000/svg">
<circle cx="16.1484" cy="16.9238" r="16" fill="#099298"/>
<path fill-rule="evenodd" clip-rule="evenodd" d="M11.0795 10.0358L8.16091 16.165C8.14924 16.1872 8.14522 16.2127 8.14948 16.2374C8.15373 16.2621 8.16602 16.2848 8.18445 16.3018L16.063 23.8551C16.0857 23.8755 16.1151 23.8868 16.1456 23.8868C16.1761 23.8868 16.2056 23.8755 16.2283 23.8551L24.1115 16.3018C24.1298 16.2846 24.1419 16.262 24.1462 16.2374C24.1504 16.2127 24.1465 16.1873 24.1351 16.165L21.2164 10.0358C21.2087 10.0144 21.1944 9.99611 21.1756 9.98339C21.1569 9.97066 21.1345 9.96419 21.1119 9.9649H11.1831C11.1607 9.96551 11.139 9.9725 11.1204 9.98506C11.1019 9.99761 11.0873 10.0152 11.0785 10.0358H11.0795Z" fill="white"/>
<path fill-rule="evenodd" clip-rule="evenodd" d="M17.162 16.7926C17.1055 16.7973 16.8131 16.8161 16.1623 16.8161C15.6438 16.8161 15.2759 16.802 15.1439 16.7926C13.1402 16.7031 11.6456 16.3541 11.6456 15.9391C11.6456 15.5241 13.1402 15.1706 15.1439 15.0812V16.4437C15.2746 16.4532 15.6485 16.4767 16.167 16.4767C16.7894 16.4767 17.1005 16.4485 17.1573 16.4437V15.0812C19.1562 15.1706 20.6508 15.5197 20.6508 15.9344C20.6508 16.3491 19.1604 16.7031 17.162 16.7926ZM17.162 14.9444V13.7231H19.9532V11.8608H12.3529V13.7231H15.1439V14.9444C12.8761 15.049 11.1694 15.4959 11.1694 16.0382C11.1694 16.5805 12.8761 17.0237 15.1439 17.132V21.0408H17.162V17.132C19.425 17.0274 21.1273 16.5802 21.1273 16.0429C21.1273 15.5056 19.425 15.0477 17.162 14.9444Z" fill="#099298"/>
</svg>
