<svg width="21" height="17" viewBox="0 0 21 17" fill="none" xmlns="http://www.w3.org/2000/svg">
<path d="M17.7502 2.93823V2.18823C17.7502 1.92302 17.6448 1.66866 17.4573 1.48113C17.2698 1.29359 17.0154 1.18823 16.7502 1.18823H2.4502C1.7602 1.18823 1.2002 1.74823 1.2002 2.43823M1.2002 2.43823V13.6882C1.2002 14.2187 1.41091 14.7274 1.78598 15.1024C2.16105 15.4775 2.66976 15.6882 3.2002 15.6882H18.7002C18.9654 15.6882 19.2198 15.5829 19.4073 15.3953C19.5948 15.2078 19.7002 14.9534 19.7002 14.6882V4.68823C19.7002 4.42302 19.5948 4.16866 19.4073 3.98113C19.2198 3.79359 18.9654 3.68823 18.7002 3.68823H2.4502C1.7602 3.68823 1.2002 3.12823 1.2002 2.43823ZM15.7502 9.68823C15.7502 9.88714 15.6712 10.0779 15.5305 10.2186C15.3899 10.3592 15.1991 10.4382 15.0002 10.4382C14.8013 10.4382 14.6105 10.3592 14.4699 10.2186C14.3292 10.0779 14.2502 9.88714 14.2502 9.68823C14.2502 9.48932 14.3292 9.29856 14.4699 9.1579C14.6105 9.01725 14.8013 8.93823 15.0002 8.93823C15.1991 8.93823 15.3899 9.01725 15.5305 9.1579C15.6712 9.29856 15.7502 9.48932 15.7502 9.68823Z" stroke="#296EFA" stroke-width="1.5" stroke-linecap="round" stroke-linejoin="round"/>
</svg>
