<svg width="25" height="24" viewBox="0 0 25 24" fill="none" xmlns="http://www.w3.org/2000/svg">
<path d="M14.7617 15.998H9.76172" stroke="#657795" stroke-width="1.5" stroke-miterlimit="10" stroke-linecap="round" stroke-linejoin="round"/>
<path d="M13.16 2.51814L13.13 2.58814L10.23 9.31814H7.37996C6.69996 9.31814 6.04996 9.45814 5.45996 9.70814L7.20996 5.52814L7.24996 5.42814L7.31996 5.26814C7.33996 5.20814 7.35996 5.14814 7.38996 5.09814C8.69996 2.06814 10.18 1.37814 13.16 2.51814Z" stroke="#657795" stroke-width="1.5" stroke-linecap="round" stroke-linejoin="round"/>
<path d="M18.55 9.51807C18.1 9.37807 17.62 9.31807 17.14 9.31807H10.23L13.13 2.58807L13.16 2.51807C13.31 2.56807 13.45 2.63807 13.6 2.69807L15.81 3.62807C17.04 4.13807 17.9 4.66807 18.42 5.30807C18.52 5.42807 18.6 5.53807 18.67 5.66807C18.76 5.80807 18.83 5.94807 18.87 6.09807C18.91 6.18807 18.94 6.27807 18.96 6.35807C19.23 7.19807 19.07 8.22807 18.55 9.51807Z" stroke="#657795" stroke-width="1.5" stroke-linecap="round" stroke-linejoin="round"/>
<path d="M22.0217 14.1984V16.1484C22.0217 16.3484 22.0117 16.5484 22.0017 16.7484C21.8117 20.2384 19.8617 21.9984 16.1617 21.9984H8.36172C8.12172 21.9984 7.88172 21.9784 7.65172 21.9484C4.47172 21.7384 2.77172 20.0384 2.56172 16.8584C2.53172 16.6284 2.51172 16.3884 2.51172 16.1484V14.1984C2.51172 12.1884 3.73172 10.4584 5.47172 9.70836C6.07172 9.45836 6.71172 9.31836 7.39172 9.31836H17.1517C17.6417 9.31836 18.1217 9.38836 18.5617 9.51836C20.5517 10.1284 22.0217 11.9884 22.0217 14.1984Z" stroke="#657795" stroke-width="1.5" stroke-linecap="round" stroke-linejoin="round"/>
<path d="M7.21 5.52832L5.46 9.70832C3.72 10.4583 2.5 12.1883 2.5 14.1983V11.2683C2.5 8.42832 4.52 6.05832 7.21 5.52832Z" stroke="#657795" stroke-width="1.5" stroke-linecap="round" stroke-linejoin="round"/>
<path d="M22.0186 11.2677V14.1977C22.0186 11.9977 20.5586 10.1277 18.5586 9.52766C19.0786 8.22766 19.2286 7.20766 18.9786 6.35766C18.9586 6.26766 18.9286 6.17766 18.8886 6.09766C20.7486 7.05766 22.0186 9.02766 22.0186 11.2677Z" stroke="#657795" stroke-width="1.5" stroke-linecap="round" stroke-linejoin="round"/>
</svg>
